<svg width="12" height="16" viewBox="0 0 12 16" fill="none" xmlns="http://www.w3.org/2000/svg">
<path d="M3.03506 11.3325C2.7635 11.0609 2.90506 11.1375 2.25006 10.9622C1.95287 10.8825 1.69162 10.7294 1.45537 10.5459L0.0375629 14.0222C-0.0996272 14.3587 0.156623 14.7244 0.519753 14.7106L2.16631 14.6478L3.29881 15.844C3.54881 16.1078 3.98756 16.0256 4.12475 15.689L5.75131 11.7009C5.41256 11.8897 5.03662 12.0003 4.64787 12.0003C4.0385 12.0003 3.466 11.7631 3.03506 11.3325ZM11.9626 14.0222L10.5448 10.5459C10.3085 10.7297 10.0473 10.8825 9.75006 10.9622C9.09166 11.1384 9.23596 11.0615 8.96506 11.3325C8.53416 11.7631 7.96131 12.0003 7.35194 12.0003C6.96319 12.0003 6.58725 11.8894 6.2485 11.7009L7.87506 15.689C8.01226 16.0256 8.45136 16.1078 8.70096 15.844L9.83386 14.6478L11.4804 14.7106C11.8435 14.7244 12.0998 14.3584 11.9626 14.0222ZM8.21886 10.6253C8.69636 10.1394 8.75096 10.1812 9.43096 9.99587C9.86506 9.87747 10.2045 9.53217 10.3207 9.09027C10.5545 8.20277 10.4939 8.30998 11.1317 7.66058C11.4495 7.33718 11.5735 6.86558 11.4573 6.42368C11.2239 5.53688 11.2235 5.66057 11.4573 4.77277C11.5735 4.33087 11.4495 3.85937 11.1317 3.53587C10.4939 2.88647 10.5545 2.99337 10.3207 2.10617C10.2045 1.66437 9.86506 1.31897 9.43096 1.20057C8.55976 0.962773 8.66476 1.02498 8.02636 0.375275C7.7085 0.051875 7.24506 -0.0747252 6.811 0.0436748C5.94006 0.281175 6.06162 0.281475 5.18912 0.0436748C4.75506 -0.0747252 4.29162 0.051475 3.97381 0.375275C3.336 1.02468 3.441 0.962773 2.56944 1.20057C2.13537 1.31897 1.796 1.66437 1.67975 2.10617C1.44631 2.99337 1.50662 2.88647 0.868813 3.53587C0.551003 3.85937 0.426623 4.33087 0.543193 4.77277C0.776623 5.65897 0.776943 5.53527 0.543193 6.42337C0.426943 6.86527 0.551003 7.33688 0.868813 7.66058C1.50662 8.30998 1.446 8.20277 1.67975 9.09027C1.796 9.53217 2.13537 9.87747 2.56944 9.99587C3.26881 10.1865 3.321 10.1565 3.78131 10.6253C4.19475 11.0462 4.83881 11.1215 5.33569 10.8072C5.53438 10.681 5.76487 10.614 6.00022 10.614C6.23557 10.614 6.46606 10.681 6.66475 10.8072C7.16131 11.1215 7.80537 11.0462 8.21886 10.6253ZM3.05194 5.49897C3.05194 3.84187 4.37194 2.49838 6.00006 2.49838C7.62819 2.49838 8.94816 3.84187 8.94816 5.49897C8.94816 7.15617 7.62819 8.49967 6.00006 8.49967C4.37194 8.49967 3.05194 7.15617 3.05194 5.49897Z" fill="white" fill-opacity="0.5"/>
</svg>
